<svg width="460" height="575" viewBox="0 0 460 575" fill="none" xmlns="http://www.w3.org/2000/svg">
<path fill-rule="evenodd" clip-rule="evenodd" d="M368.652 292.128C368.652 371.015 306.999 424.854 230.65 424.854C154.301 424.854 92.1133 371.015 92.1133 292.128C92.1133 213.241 154.034 149.25 230.383 149.25C306.732 149.25 368.652 213.241 368.652 292.128Z" fill="url(#paint0_linear_62_15816)"/>
<path d="M230.315 149.318C306.664 149.318 368.584 213.309 368.584 292.196C368.584 371.083 306.931 424.922 230.582 424.922C154.233 424.922 92.0453 371.083 92.0453 292.196C92.0453 213.242 153.966 149.318 230.315 149.318ZM230.315 143.239C150.693 143.239 85.9668 210.036 85.9668 292.196C85.9668 371.35 148.155 431 230.582 431C312.742 431 374.663 371.35 374.663 292.196C374.663 210.036 309.937 143.239 230.315 143.239Z" fill="white"/>
<path fill-rule="evenodd" clip-rule="evenodd" d="M252.357 389.72C189.634 402.612 130.786 374.824 118.095 312.904C117.16 308.228 116.492 303.485 116.091 298.876V298.809C111.616 242.099 150.625 189.396 208.538 177.506C259.304 167.086 309.134 191.2 332.914 233.616C332.914 233.616 332.914 233.682 332.981 233.749C338.525 243.702 342.666 254.59 345.071 266.279C357.829 328.267 315.012 376.828 252.357 389.72Z" fill="url(#paint1_radial_62_15816)"/>
<path d="M153.764 249.111C160.072 249.111 165.186 243.997 165.186 237.688C165.186 231.38 160.072 226.266 153.764 226.266C147.456 226.266 142.342 231.38 142.342 237.688C142.342 243.997 147.456 249.111 153.764 249.111Z" fill="white"/>
<path fill-rule="evenodd" clip-rule="evenodd" d="M316.148 352.647C303.056 364.537 289.028 370.415 284.753 365.739C280.478 361.063 287.692 347.637 300.785 335.747C313.877 323.857 327.904 317.979 332.179 322.655C336.387 327.331 329.173 340.757 316.148 352.647Z" fill="white"/>
<path fill-rule="evenodd" clip-rule="evenodd" d="M128.051 287.053C128.051 287.053 171.469 308.962 191.04 249.112C211.079 187.859 282.552 190.531 302.925 204.959C302.925 204.959 262.246 167.82 192.977 190.531C119.367 214.712 128.051 287.053 128.051 287.053Z" fill="url(#paint2_linear_62_15816)"/>
<path d="M265.057 310.421V333.351H196.59V310.421H219.095V269.816C218.144 271.09 216.665 272.364 214.657 273.638C212.65 274.912 210.378 276.132 207.842 277.3C205.412 278.468 202.929 279.423 200.393 280.166C197.858 280.803 195.533 281.122 193.42 281.122V257.555C195.216 257.555 197.435 257.024 200.076 255.963C202.718 254.795 205.359 253.362 208.001 251.663C210.748 249.965 213.125 248.266 215.133 246.568C217.246 244.869 218.567 243.489 219.095 242.428H244.929V310.421H265.057Z" fill="white"/>
<defs>
<linearGradient id="paint0_linear_62_15816" x1="230.344" y1="424.86" x2="230.344" y2="149.291" gradientUnits="userSpaceOnUse">
<stop stop-color="#C1BDF1"/>
<stop offset="1" stop-color="#FBF9FE"/>
</linearGradient>
<radialGradient id="paint1_radial_62_15816" cx="0" cy="0" r="1" gradientUnits="userSpaceOnUse" gradientTransform="translate(184.359 245.281) scale(112.321)">
<stop stop-color="#54704A"/>
<stop offset="0.9973" stop-color="#8CB252"/>
</radialGradient>
<linearGradient id="paint2_linear_62_15816" x1="127.734" y1="237.072" x2="302.973" y2="237.072" gradientUnits="userSpaceOnUse">
<stop stop-color="#54704A"/>
<stop offset="1"/>
</linearGradient>
</defs>
</svg>
