<svg width="108" height="122" viewBox="0 0 108 122" fill="none" xmlns="http://www.w3.org/2000/svg">
<path d="M18.9 33.0417V50.8333H10.8C7.93566 50.8333 5.18864 51.9045 3.16325 53.8111C1.13785 55.7177 0 58.3036 0 61L0 111.833C0 114.53 1.13785 117.116 3.16325 119.022C5.18864 120.929 7.93566 122 10.8 122H97.2C100.064 122 102.811 120.929 104.837 119.022C106.862 117.116 108 114.53 108 111.833V61C108 58.3036 106.862 55.7177 104.837 53.8111C102.811 51.9045 100.064 50.8333 97.2 50.8333H89.1V33.0417C89.1 24.2785 85.402 15.8742 78.8195 9.67768C72.2369 3.48117 63.3091 0 54 0C44.6909 0 35.7631 3.48117 29.1806 9.67768C22.598 15.8742 18.9 24.2785 18.9 33.0417V33.0417ZM32.4 50.8333V33.0417C32.4 27.6489 34.6757 22.4771 38.7265 18.6638C42.7773 14.8506 48.2713 12.7083 54 12.7083C59.7287 12.7083 65.2227 14.8506 69.2735 18.6638C73.3243 22.4771 75.6 27.6489 75.6 33.0417V50.8333H32.4ZM43.2 78.7917C43.2004 77.0304 43.6869 75.2994 44.6117 73.7684C45.5366 72.2373 46.8681 70.9587 48.4758 70.0578C50.0835 69.1569 51.9122 68.6647 53.7828 68.6292C55.6534 68.5938 57.5017 69.0165 59.1466 69.8558C60.7915 70.6951 62.1766 71.9223 63.1661 73.4171C64.1555 74.9119 64.7155 76.6231 64.7912 78.3829C64.8668 80.1427 64.4555 81.8909 63.5975 83.456C62.7395 85.0212 61.4643 86.3497 59.8968 87.3113L59.8536 87.3368C59.8536 87.3368 60.9066 93.3351 62.0946 100.401V100.406C62.0946 101.416 61.6685 102.384 60.91 103.098C60.1515 103.812 59.1227 104.213 58.05 104.213H49.9392C48.8665 104.213 47.8377 103.812 47.0792 103.098C46.3207 102.384 45.8946 101.416 45.8946 100.406V100.401L48.1356 87.3368C46.6194 86.4151 45.3724 85.1508 44.5084 83.6591C43.6444 82.1674 43.1909 80.4958 43.1892 78.7968L43.2 78.7917Z" fill="#899696"/>
</svg>
