<svg width="245" height="112" viewBox="0 0 245 112" fill="none" xmlns="http://www.w3.org/2000/svg">
<path d="M125.55 43.5206L132.415 57.4121C132.964 58.544 134.028 59.2986 135.264 59.5044L150.607 61.7339C153.73 62.1798 154.966 66.0214 152.7 68.2166L141.614 79.0211C140.721 79.8786 140.309 81.1477 140.515 82.3825L143.124 97.646C143.673 100.767 140.378 103.134 137.598 101.659L123.868 94.4561C122.77 93.873 121.431 93.873 120.333 94.4561L106.603 101.659C103.823 103.134 100.562 100.767 101.077 97.646L103.686 82.3825C103.892 81.1477 103.48 79.8786 102.587 79.0211L91.5006 68.2166C89.2353 66.0214 90.5052 62.1798 93.5944 61.7339L108.937 59.5044C110.173 59.3329 111.237 58.544 111.786 57.4121L118.651 43.5206C120.127 40.708 124.177 40.708 125.55 43.5206Z" fill="#FEBC11"/>
<path d="M122.152 41.394C123.525 41.394 124.864 42.1143 125.55 43.5206L132.415 57.4122C132.964 58.5441 134.028 59.2987 135.264 59.5045L150.607 61.7339C153.73 62.1798 154.966 66.0214 152.7 68.2166L141.614 79.0212C140.721 79.8787 140.309 81.1478 140.515 82.3826L143.124 97.6461C143.536 100.116 141.579 102.105 139.383 102.105C138.799 102.105 138.181 101.968 137.598 101.659L123.868 94.4562C123.319 94.1818 122.701 94.0103 122.083 94.0103C121.465 94.0103 120.882 94.1475 120.298 94.4562L106.569 101.659C105.985 101.968 105.367 102.105 104.784 102.105C102.553 102.105 100.596 100.116 101.043 97.6461L103.651 82.3826C103.857 81.1478 103.445 79.8787 102.553 79.0212L91.4662 68.2166C89.2008 66.0214 90.4708 62.1798 93.56 61.7339L108.903 59.5045C110.139 59.333 111.203 58.5441 111.752 57.4122L118.617 43.5206C119.44 42.1143 120.779 41.394 122.152 41.394ZM122.152 31.5156C116.9 31.5156 112.198 34.4311 109.864 39.1302L104.406 50.1406L92.2213 51.9241C87.0384 52.6787 82.7822 56.2459 81.169 61.2537C79.5558 66.2272 80.8601 71.6123 84.6357 75.2824L93.457 83.8574L91.3632 95.9654C90.6768 99.9442 91.7752 103.992 94.3838 107.079C96.9924 110.2 100.837 111.949 104.853 111.949C107.049 111.949 109.246 111.4 111.237 110.371L122.118 104.643L132.998 110.371C134.955 111.4 137.186 111.949 139.383 111.949C143.433 111.949 147.243 110.166 149.851 107.079C152.46 103.992 153.558 99.9442 152.872 95.9654L150.778 83.8574L159.6 75.2824C163.375 71.6123 164.679 66.2615 163.066 61.2537C161.453 56.2802 157.197 52.6787 152.014 51.9241L139.829 50.1406L134.371 39.1302C132.106 34.4311 127.404 31.5156 122.152 31.5156Z" fill="#23ACCC"/>
<path d="M122.152 41.3929C123.525 41.3929 124.863 42.1132 125.55 43.5195L132.415 57.411C132.964 58.5429 134.028 59.2975 135.264 59.5033L150.606 61.7328C153.73 62.1787 154.966 66.0203 152.7 68.2155L141.614 79.02C140.721 79.8775 140.309 81.1466 140.515 82.3814L143.124 97.6449C143.536 100.114 141.579 102.104 139.382 102.104C138.799 102.104 138.181 101.967 137.598 101.658L123.868 94.455C123.319 94.1806 122.701 94.0091 122.083 94.0091C121.465 94.0091 120.882 94.1463 120.298 94.455L106.569 101.658C105.985 101.967 105.367 102.104 104.784 102.104C102.553 102.104 100.596 100.114 101.042 97.6449L103.651 82.3814C103.857 81.1466 103.445 79.8775 102.553 79.02L91.4661 68.2155C89.2007 66.0203 90.4707 62.1787 93.5598 61.7328L108.903 59.5033C110.138 59.3318 111.202 58.5429 111.752 57.411L118.616 43.5195C119.44 42.1132 120.779 41.3929 122.152 41.3929ZM122.152 37.6885C119.269 37.6885 116.694 39.3006 115.424 41.8731L108.559 55.7646L93.1479 58.0284C90.2991 58.44 87.965 60.3951 87.0726 63.1391C86.1801 65.8831 86.901 68.8329 88.9604 70.8223L100.047 81.6268L97.4728 96.9589C97.0952 99.1541 97.713 101.384 99.1203 103.064C100.562 104.779 102.656 105.74 104.887 105.74C106.122 105.74 107.289 105.431 108.388 104.882L122.117 97.6792L135.916 104.882C137.014 105.465 138.181 105.74 139.417 105.74C141.648 105.74 143.742 104.745 145.183 103.064C146.59 101.384 147.208 99.1541 146.831 96.9589L144.222 81.6954L155.343 70.788C157.403 68.7643 158.123 65.8145 157.231 63.1048C156.339 60.3608 154.004 58.4057 151.156 57.9941L135.813 55.7646L128.879 41.8387C127.609 39.3005 125.035 37.6885 122.152 37.6885Z" fill="white"/>
<path d="M42.0057 11.3803L32.6009 23.694C31.8458 24.6887 30.6444 25.2375 29.3744 25.1689L13.8943 24.38C10.7364 24.2085 8.77998 27.7414 10.5648 30.3482L19.3518 43.1078C20.0726 44.1368 20.2099 45.4403 19.7637 46.6065L14.2375 61.081C13.1048 64.0308 15.8507 66.9807 18.8713 66.0889L33.7336 61.6642C34.9349 61.3212 36.2392 61.5613 37.2003 62.3502L49.2824 72.0571C51.7537 74.0465 55.3921 72.3314 55.4607 69.1758L55.8383 53.7065C55.8726 52.4717 56.5248 51.3056 57.5545 50.6196L70.529 42.1474C73.1719 40.4324 72.6914 36.4193 69.7052 35.3903L55.0832 30.2453C53.9161 29.8337 52.9894 28.8733 52.6805 27.6385L48.6302 12.6837C47.8751 9.66527 43.9278 8.87641 42.0057 11.3803Z" fill="#FEBC11"/>
<path d="M45.7814 9.97443C47.1201 10.2488 48.3214 11.1749 48.7333 12.7184L52.7835 27.6733C53.1268 28.8738 54.0192 29.8342 55.1862 30.2801L69.8083 35.4251C72.7945 36.4884 73.275 40.4672 70.632 42.1822L57.6575 50.6543C56.5935 51.3403 55.9757 52.5065 55.9413 53.7413L55.5638 69.2106C55.4951 71.7146 53.1954 73.2923 51.033 72.8464C50.4495 72.7435 49.9003 72.4692 49.3855 72.0576L37.3034 62.3506C36.8228 61.9733 36.2393 61.6989 35.6558 61.596C35.0723 61.4931 34.4202 61.4931 33.8366 61.6989L18.9743 66.1236C18.3565 66.2951 17.7387 66.3294 17.1552 66.2265C14.9927 65.8149 13.4482 63.4482 14.3406 61.1501L19.8668 46.6755C20.313 45.5093 20.1414 44.2059 19.4549 43.1769L10.5993 30.3487C8.81441 27.7419 10.7709 24.2432 13.9287 24.3804L29.4088 25.1694C30.6445 25.238 31.8458 24.6892 32.6353 23.6945L42.0401 11.3807C42.9668 10.1459 44.4428 9.70003 45.7814 9.97443ZM47.6692 0.267504C42.5206 -0.761497 37.3377 1.22792 34.1456 5.37823L26.6629 15.1537L14.3749 14.5363C9.12332 14.2619 4.28362 16.9716 1.74364 21.5335C-0.796339 26.1297 -0.556068 31.6521 2.43013 35.9739L9.39792 46.0924L5.00443 57.5829C3.56282 61.3559 3.87174 65.5405 5.82821 69.0734C7.78469 72.6406 11.2171 75.1102 15.1644 75.8991C17.3268 76.3107 19.5922 76.2079 21.7203 75.5905L33.4934 72.0918L43.0698 79.8094C44.786 81.2157 46.8455 82.176 49.0079 82.5876C52.9895 83.3766 57.074 82.3476 60.2318 79.8094C63.3897 77.2711 65.2432 73.5325 65.3461 69.4851L65.6551 57.2056L75.9523 50.4828C80.3458 47.6016 82.6798 42.5938 82.062 37.3802C81.4441 32.1666 77.9774 27.8447 73.0004 26.0954L61.3989 22.0137L58.1724 10.1459C56.9024 5.06953 52.8522 1.29651 47.6692 0.267504Z" fill="#23ACCC"/>
<path d="M45.7816 9.97413C47.1203 10.2485 48.3216 11.1746 48.7335 12.7181L52.7838 27.673C53.127 28.8735 54.0194 29.8339 55.1864 30.2798L69.8085 35.4248C72.7947 36.4881 73.2752 40.4669 70.6323 42.1819L57.6578 50.654C56.5937 51.34 55.9759 52.5062 55.9416 53.741L55.564 69.2103C55.4954 71.7142 53.1956 73.292 51.0332 72.8461C50.4497 72.7432 49.9005 72.4689 49.3857 72.0573L37.3036 62.3503C36.8231 61.973 36.2396 61.6986 35.656 61.5957C35.0725 61.4928 34.4204 61.4928 33.8369 61.6986L18.9745 66.1233C18.3567 66.2948 17.7389 66.3291 17.1554 66.2262C14.993 65.8146 13.4484 63.4479 14.3408 61.1498L19.867 46.6752C20.3132 45.509 20.1416 44.2056 19.4551 43.1766L10.5995 30.3484C8.81462 27.7416 10.7711 24.2429 13.9289 24.3801L29.4091 25.1691C30.6447 25.2377 31.8461 24.6889 32.6355 23.6941L42.0403 11.3804C42.9671 10.1456 44.443 9.69973 45.7816 9.97413ZM46.5024 6.33833C43.6879 5.78953 40.839 6.8528 39.0885 9.15091L29.5807 21.4989L14.1005 20.7101C11.2173 20.5729 8.57435 22.0477 7.16706 24.5517C5.75978 27.0556 5.89708 30.1083 7.54463 32.475L16.3659 45.3032L10.8397 59.7778C10.0503 61.8358 10.2219 64.1339 11.286 66.089C12.3843 68.0441 14.2378 69.4161 16.4002 69.8277C17.6016 70.0678 18.8029 69.9992 20.0043 69.6562L34.9352 65.2658L47.0173 74.9727C47.9784 75.7616 49.0768 76.2761 50.2781 76.5162C52.4405 76.9278 54.7059 76.379 56.4564 74.9727C58.1726 73.6007 59.2024 71.5427 59.2367 69.3132L59.6486 53.741L72.6231 45.2689C75.0258 43.6911 76.3301 40.9471 75.9868 38.1002C75.6436 35.2533 73.7558 32.8865 71.0098 31.9261L56.3191 26.7126L52.2689 11.7577C51.5481 8.94514 49.317 6.88713 46.5024 6.33833Z" fill="white"/>
<path d="M202.059 11.3803L211.464 23.694C212.219 24.6887 213.42 25.2375 214.69 25.1689L230.171 24.38C233.328 24.2085 235.285 27.7414 233.5 30.3482L224.713 43.1078C223.992 44.1368 223.855 45.4403 224.301 46.6065L229.827 61.081C230.96 64.0308 228.214 66.9807 225.194 66.0889L210.331 61.6642C209.13 61.3212 207.826 61.5613 206.865 62.3502L194.782 72.0571C192.311 74.0465 188.673 72.3314 188.604 69.1758L188.227 53.7065C188.192 52.4717 187.54 51.3056 186.51 50.6196L173.536 42.1474C170.893 40.4324 171.373 36.4193 174.36 35.3903L188.982 30.2453C190.149 29.8337 191.075 28.8733 191.384 27.6385L195.435 12.6837C196.19 9.66527 200.137 8.87641 202.059 11.3803Z" fill="#FEBC11"/>
<path d="M198.318 9.97461C199.656 9.70021 201.132 10.1461 202.059 11.3809L211.464 23.6946C212.219 24.6893 213.42 25.2382 214.69 25.1696L230.17 24.3806C233.328 24.2091 235.285 27.742 233.5 30.3488L224.713 43.1085C223.992 44.1375 223.855 45.4409 224.301 46.6071L229.827 61.0816C230.719 63.414 229.175 65.7465 227.012 66.1581C226.429 66.261 225.811 66.261 225.193 66.0552L210.331 61.6305C209.747 61.459 209.095 61.4247 208.512 61.5276C207.928 61.6305 207.345 61.9049 206.864 62.2822L194.782 71.9891C194.267 72.4007 193.718 72.6408 193.135 72.778C190.972 73.1896 188.672 71.6118 188.604 69.1422L188.226 53.6729C188.192 52.4381 187.54 51.2718 186.51 50.5858L173.536 42.1137C170.893 40.3987 171.373 36.3856 174.359 35.3566L188.981 30.2116C190.148 29.8 191.075 28.8396 191.384 27.6048L195.434 12.65C195.778 11.1751 196.979 10.2147 198.318 9.97461ZM196.395 0.267691C191.247 1.29669 187.197 5.06968 185.824 10.1118L182.597 21.9796L170.996 26.0613C166.053 27.8106 162.586 32.1324 161.934 37.346C161.316 42.5596 163.65 47.5675 168.044 50.4487L178.341 57.1714L178.65 69.4509C178.753 73.4983 180.606 77.2713 183.764 79.7752C186.922 82.3134 191.041 83.3424 194.988 82.5535C197.15 82.1419 199.21 81.1815 200.926 79.7752L210.503 72.0577L222.276 75.5563C224.404 76.1737 226.669 76.3109 228.832 75.865C232.813 75.0761 236.211 72.6065 238.168 69.0393C240.124 65.5064 240.433 61.3217 238.992 57.5487L234.598 46.0583L241.566 35.9398C244.552 31.618 244.827 26.0956 242.252 21.4994C239.712 16.9032 234.838 14.2278 229.621 14.5022L217.333 15.1196L209.85 5.34408C206.727 1.22808 201.544 -0.761311 196.395 0.267691Z" fill="#23ACCC"/>
<path d="M198.317 9.97372C199.656 9.69932 201.132 10.1452 202.059 11.38L211.463 23.6937C212.219 24.6884 213.42 25.2373 214.69 25.1687L230.17 24.3797C233.328 24.2082 235.284 27.7412 233.499 30.348L224.713 43.1076C223.992 44.1366 223.854 45.44 224.301 46.6062L229.827 61.0808C230.719 63.4132 229.175 65.7456 227.012 66.1572C226.429 66.2601 225.811 66.2601 225.193 66.0543L210.331 61.6296C209.747 61.4581 209.095 61.4238 208.512 61.5267C207.928 61.6296 207.345 61.904 206.864 62.2813L194.782 71.9882C194.267 72.3998 193.718 72.6399 193.134 72.7771C190.972 73.1887 188.672 71.6109 188.604 69.1413L188.226 53.672C188.192 52.4372 187.54 51.271 186.51 50.585L173.535 42.1129C170.892 40.3978 171.373 36.3847 174.359 35.3557L188.981 30.2107C190.148 29.7991 191.075 28.8387 191.384 27.6039L195.434 12.6491C195.777 11.1742 196.979 10.2138 198.317 9.97372ZM197.597 6.33793C194.782 6.88673 192.551 8.97904 191.796 11.7573L187.745 26.7122L173.055 31.9257C170.343 32.8861 168.421 35.2528 168.078 38.0998C167.735 40.9467 169.005 43.7249 171.442 45.2685L184.416 53.7406L184.828 69.3128C184.897 71.5423 185.892 73.6003 187.608 74.9723C189.359 76.3786 191.59 76.9274 193.787 76.5158C194.988 76.2757 196.086 75.7612 197.047 74.9723L209.129 65.2654L224.06 69.6558C225.262 69.9988 226.463 70.0674 227.664 69.8273C229.827 69.4157 231.715 68.0437 232.779 66.0886C233.843 64.1678 234.014 61.8697 233.225 59.7774L227.699 45.3028L236.52 32.4745C238.168 30.1078 238.305 27.0551 236.898 24.5512C235.49 22.0473 232.847 20.5725 229.964 20.7097L214.484 21.4985L204.976 9.1505C203.26 6.8524 200.411 5.75483 197.597 6.33793Z" fill="white"/>
<path d="M46.9824 14.3993C46.9824 14.3993 51.1699 30.2116 51.6848 30.5889C52.1996 30.9662 69.8079 35.9055 65.8606 36.5229C61.9477 37.1403 41.5248 39.1983 40.2892 38.3065C39.0192 37.4147 43.5843 15.394 44.3394 13.7476C45.0946 12.1355 46.5705 12.8215 46.9824 14.3993Z" fill="url(#paint0_linear_61_18781)"/>
<path d="M52.4397 51.1007C52.4397 51.1007 39.1562 46.4016 39.1562 47.5678C39.1562 48.6997 52.1651 70.6174 53.2635 69.9657C54.3275 69.3483 55.3229 52.0954 52.4397 51.1007Z" fill="url(#paint1_linear_61_18781)"/>
<path d="M121.535 47.0199C121.535 47.0199 120.848 69.2463 124.075 70.0009C127.267 70.7555 149.406 64.5815 149.337 63.6554C149.269 62.7293 135.402 60.9457 132.965 60.0196C130.528 59.0935 126.786 46.6083 124.761 44.2416C122.702 41.8749 121.569 42.801 121.535 47.0199Z" fill="url(#paint2_linear_61_18781)"/>
<path d="M125.139 76.9622C125.345 77.0994 136.638 79.5004 137.805 81.6956C138.972 83.8908 143.056 96.6162 141.786 98.9143C140.516 101.178 125.757 83.2048 124.487 80.4265C123.217 77.6482 123.389 75.796 125.139 76.9622Z" fill="url(#paint3_linear_61_18781)"/>
<path d="M198.867 13.4049C198.867 13.4049 202.402 39.2328 205.835 39.2328C209.267 39.2328 231.818 25.5471 229.141 25.4442C226.463 25.307 214.072 26.4732 212.287 25.4442C210.503 24.4152 202.025 11.8957 201.029 11.3812C199.999 10.8667 198.558 11.1754 198.867 13.4049Z" fill="url(#paint4_linear_61_18781)"/>
<path d="M206.624 41.394C206.624 41.394 220.628 44.6525 222.242 46.2646C223.855 47.8767 229.415 61.631 228.832 61.974C228.248 62.317 207.894 47.3622 206.624 45.6815C205.354 43.9665 204.874 40.9824 206.624 41.394Z" fill="url(#paint5_linear_61_18781)"/>
<path d="M172.678 39.7471C172.678 39.7471 198.696 42.5254 198.799 44.0346C198.936 45.5438 189.977 50.6887 188.124 50.4486C186.27 50.2085 170.481 41.1877 172.678 39.7471Z" fill="url(#paint6_linear_61_18781)"/>
<path d="M192.139 70.9952C192.139 70.9952 199.347 48.5972 202.024 46.6764C204.667 44.7899 207.894 59.6075 207.345 60.9795C206.83 62.3515 190.251 76.689 192.139 70.9952Z" fill="url(#paint7_linear_61_18781)"/>
<path d="M91.123 66.4336C91.123 66.4336 116.866 73.4308 115.939 74.8028C115.013 76.1405 104.921 80.5309 103.548 79.5362C102.141 78.5072 90.0247 66.8452 91.123 66.4336Z" fill="url(#paint8_linear_61_18781)"/>
<path d="M103.514 100.526C104.132 99.291 117.896 80.4946 119.235 79.6714C120.573 78.8482 121.637 91.4363 121.019 92.9455C120.367 94.4204 100.94 105.671 103.514 100.526Z" fill="url(#paint9_linear_61_18781)"/>
<path d="M11.6633 26.7471C11.6633 26.7471 35.038 39.9184 34.2828 41.3933C33.5277 42.8682 21.9605 44.3088 21.274 43.7943C20.6219 43.3141 5.93116 27.0901 11.6633 26.7471Z" fill="url(#paint10_linear_61_18781)"/>
<path d="M16.1254 64.4774C16.5029 63.5856 33.6993 47.8419 35.896 47.396C38.0928 46.9501 36.2393 58.8522 34.8663 59.8469C33.5277 60.8416 14.1003 69.1422 16.1254 64.4774Z" fill="url(#paint11_linear_61_18781)"/>
<defs>
<linearGradient id="paint0_linear_61_18781" x1="9.06287" y1="40.1635" x2="52.8831" y2="25.5885" gradientUnits="userSpaceOnUse">
<stop stop-color="white"/>
<stop offset="1" stop-color="#FFC840"/>
</linearGradient>
<linearGradient id="paint1_linear_61_18781" x1="29.655" y1="64.2136" x2="50.3516" y2="57.3298" gradientUnits="userSpaceOnUse">
<stop stop-color="white"/>
<stop offset="1" stop-color="#FFC840"/>
</linearGradient>
<linearGradient id="paint2_linear_61_18781" x1="89.9292" y1="68.7853" x2="135.536" y2="53.6162" gradientUnits="userSpaceOnUse">
<stop stop-color="white"/>
<stop offset="1" stop-color="#FFC840"/>
</linearGradient>
<linearGradient id="paint3_linear_61_18781" x1="113.423" y1="94.3061" x2="134.918" y2="87.1565" gradientUnits="userSpaceOnUse">
<stop stop-color="white"/>
<stop offset="1" stop-color="#FFC840"/>
</linearGradient>
<linearGradient id="paint4_linear_61_18781" x1="169.181" y1="36.449" x2="216.821" y2="20.6037" gradientUnits="userSpaceOnUse">
<stop stop-color="white"/>
<stop offset="1" stop-color="#FFC840"/>
</linearGradient>
<linearGradient id="paint5_linear_61_18781" x1="190.801" y1="60.5286" x2="219.028" y2="51.1404" gradientUnits="userSpaceOnUse">
<stop stop-color="white"/>
<stop offset="1" stop-color="#FFC840"/>
</linearGradient>
<linearGradient id="paint6_linear_61_18781" x1="172.483" y1="45.1225" x2="198.825" y2="45.1225" gradientUnits="userSpaceOnUse">
<stop stop-color="#F99F1B"/>
<stop offset="1" stop-color="#FEBC11"/>
</linearGradient>
<linearGradient id="paint7_linear_61_18781" x1="192.003" y1="59.4124" x2="207.415" y2="59.4124" gradientUnits="userSpaceOnUse">
<stop stop-color="#F99F1B"/>
<stop offset="1" stop-color="#FEBC11"/>
</linearGradient>
<linearGradient id="paint8_linear_61_18781" x1="91.0485" y1="73.0384" x2="115.97" y2="73.0384" gradientUnits="userSpaceOnUse">
<stop stop-color="#F99F1B"/>
<stop offset="1" stop-color="#FEBC11"/>
</linearGradient>
<linearGradient id="paint9_linear_61_18781" x1="103.277" y1="90.7332" x2="121.202" y2="90.7332" gradientUnits="userSpaceOnUse">
<stop stop-color="#F99F1B"/>
<stop offset="1" stop-color="#FEBC11"/>
</linearGradient>
<linearGradient id="paint10_linear_61_18781" x1="10.3298" y1="35.3389" x2="34.3069" y2="35.3389" gradientUnits="userSpaceOnUse">
<stop stop-color="#F99F1B"/>
<stop offset="1" stop-color="#FEBC11"/>
</linearGradient>
<linearGradient id="paint11_linear_61_18781" x1="15.9853" y1="56.6309" x2="36.9065" y2="56.6309" gradientUnits="userSpaceOnUse">
<stop stop-color="#F99F1B"/>
<stop offset="1" stop-color="#FEBC11"/>
</linearGradient>
</defs>
</svg>
