<svg width="245" height="115" viewBox="0 0 245 115" fill="none" xmlns="http://www.w3.org/2000/svg">
<path d="M125.162 45.5473L131.684 59.6127C132.199 60.7447 133.263 61.5681 134.499 61.7739L149.776 64.3812C152.9 64.8957 154.033 68.7723 151.733 70.9336L140.37 81.4655C139.443 82.3231 138.996 83.5582 139.202 84.7932L141.434 100.128C141.88 103.25 138.585 105.548 135.804 104.004L122.278 96.4571C121.179 95.8396 119.875 95.8053 118.742 96.3542L104.838 103.215C102.023 104.622 98.7963 102.152 99.4142 99.0644L102.401 83.8669C102.641 82.6319 102.264 81.3626 101.405 80.4706L90.5914 69.3898C88.3943 67.1256 89.7332 63.3177 92.8572 62.9747L108.237 61.1221C109.473 60.9849 110.571 60.2302 111.155 59.0981L118.364 45.3757C119.806 42.597 123.823 42.6656 125.162 45.5473Z" fill="#82BCC6"/>
<path d="M121.797 43.3507C123.17 43.385 124.509 44.1397 125.162 45.5463L131.684 59.6116C132.199 60.7437 133.263 61.567 134.499 61.7729L149.776 64.3801C152.9 64.8947 154.033 68.7713 151.733 70.9325L140.37 81.4644C139.443 82.3221 138.996 83.5571 139.202 84.7921L141.434 100.127C141.777 102.597 139.786 104.552 137.589 104.484C137.005 104.484 136.387 104.312 135.838 104.003L122.312 96.456C121.763 96.1473 121.145 95.9757 120.561 95.9757C119.943 95.9757 119.325 96.0787 118.776 96.3531L104.873 103.214C104.289 103.523 103.671 103.626 103.087 103.626C100.856 103.557 98.9679 101.533 99.4485 99.0632L102.435 83.8658C102.676 82.6308 102.298 81.3615 101.44 80.4695L90.6258 69.3888C88.4287 67.1246 89.7676 63.3167 92.8916 62.9736L108.271 61.1211C109.507 60.9838 110.606 60.2291 111.189 59.097L118.399 45.3747C119.051 43.9682 120.424 43.3164 121.797 43.3507ZM122.038 33.4706C116.785 33.3334 112.013 36.1465 109.576 40.7778L103.843 51.6527L91.6213 53.1278C86.4032 53.7453 82.0777 57.2102 80.3269 62.1502C78.576 67.0903 79.7776 72.5106 83.4509 76.2499L92.0333 85.0322L89.6646 97.0735C88.875 101.053 89.8705 105.135 92.4109 108.257C94.9513 111.413 98.7276 113.3 102.778 113.403C104.976 113.472 107.207 112.957 109.198 111.997L120.218 106.542L130.963 112.545C132.92 113.643 135.083 114.226 137.28 114.295C141.331 114.398 145.176 112.717 147.888 109.664C150.566 106.645 151.767 102.631 151.184 98.6173L149.398 86.473L158.427 78.1024C162.272 74.5346 163.748 69.1829 162.238 64.1743C160.727 59.1313 156.608 55.4606 151.424 54.603L139.305 52.5446L134.156 41.3952C131.924 36.6267 127.29 33.5735 122.038 33.4706Z" fill="#23ACCC"/>
<path d="M121.797 43.3508C123.17 43.3851 124.509 44.1398 125.161 45.5464L131.684 59.6117C132.199 60.7438 133.263 61.5671 134.499 61.773L149.776 64.3802C152.9 64.8948 154.033 68.7714 151.733 70.9326L140.369 81.4645C139.442 82.3222 138.996 83.5572 139.202 84.7922L141.434 100.127C141.777 102.597 139.786 104.552 137.589 104.484C137.005 104.484 136.387 104.312 135.838 104.003L122.312 96.4561C121.763 96.1474 121.145 95.9759 120.561 95.9759C119.943 95.9759 119.325 96.0788 118.776 96.3532L104.872 103.214C104.289 103.523 103.671 103.626 103.087 103.626C100.856 103.557 98.9675 101.533 99.4481 99.0634L102.435 83.8659C102.675 82.6309 102.298 81.3616 101.439 80.4696L90.6254 69.3889C88.4283 67.1247 89.7672 63.3168 92.8912 62.9737L108.271 61.1212C109.507 60.9839 110.605 60.2292 111.189 59.0971L118.398 45.3748C119.051 43.9683 120.424 43.3165 121.797 43.3508ZM121.865 39.6458C118.982 39.5771 116.373 41.1209 115.034 43.6595L107.825 57.3818L92.3761 59.2687C89.5268 59.6117 87.158 61.4985 86.1968 64.243C85.2356 66.9532 85.8878 69.9377 87.9133 71.9961L98.7272 83.0769L95.7405 98.343C95.2942 100.504 95.8435 102.768 97.2167 104.484C98.6242 106.233 100.684 107.262 102.915 107.331C104.151 107.365 105.318 107.091 106.417 106.542L120.321 99.6809L133.95 107.228C135.048 107.846 136.215 108.154 137.417 108.189C139.648 108.257 141.743 107.331 143.253 105.65C144.729 104.003 145.382 101.808 145.038 99.6123L142.807 84.2776L154.204 73.6771C156.333 71.7217 157.122 68.8057 156.298 66.0269C155.474 63.2825 153.209 61.2584 150.359 60.7781L135.083 58.1709L128.491 44.0712C127.29 41.361 124.749 39.7144 121.865 39.6458Z" fill="white"/>
<path d="M42.4272 11.3089L32.7118 23.3846C31.9222 24.3451 30.7207 24.894 29.4505 24.7911L14.0021 23.6247C10.8437 23.3846 8.81824 26.8495 10.5347 29.491L19.0142 42.4586C19.7008 43.5221 19.8381 44.8257 19.3575 45.9921L13.4872 60.3319C12.2856 63.2479 14.9633 66.2669 18.0186 65.4435L32.9865 61.3954C34.188 61.0523 35.4926 61.3611 36.4538 62.1501L48.2633 72.1674C50.6664 74.1915 54.3739 72.6134 54.5113 69.4573L55.2665 53.9853C55.3352 52.7503 55.9875 51.5839 57.0517 50.9321L70.2344 42.8017C72.9121 41.155 72.5345 37.1412 69.5821 36.0091L55.0949 30.4859C53.9277 30.0399 53.0351 29.045 52.7605 27.8443L49.0872 12.7841C48.3319 9.73088 44.4183 8.87321 42.4272 11.3089Z" fill="#82BCC6"/>
<path d="M46.2033 10.0051C47.5422 10.3138 48.7094 11.2744 49.087 12.8181L52.7603 27.8783C53.0693 29.079 53.9275 30.0739 55.0947 30.5199L69.5819 36.0431C72.5343 37.1752 72.9119 41.189 70.2342 42.8357L57.0515 50.9662C55.9873 51.618 55.3006 52.7501 55.2663 54.0194L54.5111 69.4913C54.3737 71.9956 52.0393 73.505 49.8765 73.0247C49.2929 72.8875 48.7437 72.6474 48.2287 72.2014L36.4193 62.1841C35.9386 61.7724 35.3893 61.498 34.7714 61.3608C34.1878 61.2236 33.5355 61.2236 32.9519 61.3951L17.9842 65.4432C17.3319 65.6147 16.714 65.6147 16.1647 65.4775C14.0019 64.9972 12.5257 62.6301 13.487 60.3316L19.3573 45.9918C19.8379 44.8254 19.7006 43.5218 19.014 42.4583L10.5345 29.4907C8.81805 26.8492 10.8435 23.3843 14.0019 23.6245L29.4503 24.7908C30.6862 24.8938 31.922 24.3449 32.7116 23.3843L42.427 11.3087C43.4226 10.108 44.8988 9.69632 46.2033 10.0051ZM48.3661 0.330821C43.2509 -0.80127 37.9984 1.01693 34.7028 5.09932L26.9786 14.6707L14.7228 13.7444C9.47032 13.367 4.56122 15.9056 1.91782 20.434C-0.759907 24.9624 -0.622671 30.4856 2.26104 34.8768L8.98976 45.1685L4.32085 56.5237C2.776 60.263 2.98196 64.4483 4.83577 68.0504C6.72391 71.6525 10.054 74.2255 14.0019 75.0831C16.1647 75.5634 18.4304 75.4948 20.5589 74.9116L32.437 71.6868L41.8091 79.6458C43.4912 81.0866 45.551 82.0815 47.6794 82.5617C51.6274 83.4537 55.747 82.5275 58.974 80.0574C62.1667 77.6217 64.1235 73.8824 64.3294 69.8686L64.9474 57.5872L75.4179 51.1377C79.8808 48.3932 82.3526 43.4189 81.8719 38.2044C81.3913 32.9899 78.027 28.5645 73.1179 26.712L61.6174 22.3551L58.6993 10.4167C57.4634 5.37378 53.4812 1.49722 48.3661 0.330821Z" fill="#23ACCC"/>
<path d="M46.2038 10.005C47.5427 10.3137 48.7099 11.2743 49.0875 12.818L52.7608 27.8783C53.0698 29.079 53.928 30.0739 55.0952 30.5198L69.5824 36.0431C72.5348 37.1752 72.9124 41.1889 70.2347 42.8356L57.052 50.9661C55.9878 51.6179 55.3011 52.75 55.2668 54.0193L54.5116 69.4912C54.3742 71.9955 52.0398 73.505 49.877 73.0247C49.2934 72.8875 48.7442 72.6473 48.2292 72.2013L36.4198 62.184C35.9392 61.7724 35.3899 61.498 34.7719 61.3607C34.1883 61.2235 33.5361 61.2235 32.9524 61.395L17.9847 65.4431C17.3324 65.6147 16.7145 65.6146 16.1652 65.4774C14.0024 64.9971 12.5263 62.63 13.4875 60.3316L19.3579 45.9917C19.8385 44.8253 19.7011 43.5217 19.0146 42.4582L10.5351 29.4906C8.8186 26.8491 10.8441 23.3842 14.0024 23.6244L29.4508 24.7908C30.6867 24.8937 31.9225 24.3448 32.7121 23.3842L42.4275 11.3086C43.4231 10.1079 44.8993 9.69624 46.2038 10.005ZM47.0277 6.36859C44.2126 5.75109 41.329 6.74593 39.5438 8.97581L29.7254 21.0857L14.277 19.9194C11.3933 19.7135 8.71564 21.12 7.23946 23.59C5.76328 26.0601 5.83189 29.1133 7.41107 31.5147L15.8905 44.5852L10.0202 58.925C9.16192 60.9834 9.26486 63.2818 10.2948 65.2373C11.3246 67.227 13.1785 68.6335 15.3412 69.1138C16.5428 69.3883 17.7444 69.354 18.9459 69.0109L33.9824 64.9628L45.7919 74.9801C46.7531 75.7692 47.8172 76.3181 49.0188 76.5925C51.1815 77.0728 53.4474 76.5582 55.2326 75.2202C56.9834 73.8823 58.0475 71.8583 58.1505 69.6284L58.9745 54.0879L72.1571 45.9574C74.5945 44.448 75.9677 41.7378 75.6931 38.8562C75.4184 35.9745 73.5647 33.573 70.8869 32.5439L56.331 26.9521L52.6578 11.8918C52.0056 9.14736 49.8427 7.0204 47.0277 6.36859Z" fill="white"/>
<path d="M202.438 15.3233L211.535 27.8449C212.256 28.874 213.458 29.4573 214.694 29.423L230.176 29.0456C233.335 28.977 235.189 32.5448 233.335 35.0834L224.203 47.605C223.482 48.5999 223.276 49.9378 223.688 51.1042L228.838 65.7185C229.902 68.7031 227.087 71.5848 224.066 70.5899L209.338 65.7871C208.137 65.4097 206.832 65.6156 205.837 66.3703L193.512 75.7701C191.006 77.6912 187.401 75.9073 187.401 72.7512V57.2793C187.401 56.0443 186.784 54.8435 185.754 54.1574L172.983 45.3751C170.374 43.5912 170.958 39.6118 173.979 38.6169L188.706 33.8484C189.907 33.471 190.835 32.5104 191.178 31.3097L195.606 16.4553C196.636 13.4364 200.584 12.7846 202.438 15.3233Z" fill="#82BCC6"/>
<path d="M198.73 13.8129C200.069 13.5728 201.511 14.0531 202.438 15.3224L211.536 27.844C212.257 28.8732 213.458 29.4564 214.694 29.4221L230.177 29.0447C233.335 28.9761 235.189 32.5439 233.335 35.0825L224.203 47.6041C223.482 48.599 223.276 49.9369 223.688 51.1033L228.838 65.7176C229.662 68.0847 228.083 70.3489 225.885 70.7262C225.302 70.8292 224.684 70.7949 224.066 70.589L209.338 65.7862C208.755 65.5804 208.103 65.5461 207.519 65.649C206.935 65.7519 206.352 65.992 205.837 66.3694L193.547 75.7692C193.032 76.1809 192.448 76.421 191.864 76.4896C189.667 76.867 187.402 75.2203 187.402 72.716V57.244C187.402 56.009 186.784 54.8084 185.754 54.1223L172.983 45.34C170.374 43.5561 170.958 39.5766 173.979 38.5817L188.706 33.8132C189.908 33.4359 190.835 32.4753 191.178 31.2746L195.607 16.4202C196.156 14.9793 197.392 14.0531 198.73 13.8129ZM197.048 4.07006C191.865 4.96202 187.711 8.63276 186.235 13.6414L182.733 25.4083L171.026 29.2162C166.014 30.8286 162.444 35.0825 161.689 40.2627C160.933 45.4429 163.13 50.5201 167.456 53.5047L177.583 60.4688V72.7503C177.583 76.7984 179.334 80.6063 182.424 83.2135C185.513 85.8208 189.599 86.9529 193.581 86.2668C195.744 85.8894 197.838 84.9974 199.589 83.6252L209.338 76.1466L221.045 79.9545C223.173 80.6406 225.439 80.8122 227.602 80.4348C231.584 79.7487 235.052 77.3473 237.111 73.8481C239.171 70.3832 239.549 66.1979 238.21 62.3899L234.125 50.7946L241.368 40.8459C244.458 36.592 244.87 31.0687 242.432 26.4375C239.995 21.8062 235.223 18.9931 229.971 19.1304L217.681 19.4391L210.471 9.49039C207.382 5.27077 202.232 3.17811 197.048 4.07006Z" fill="#23ACCC"/>
<path d="M198.731 13.8137C200.069 13.5736 201.511 14.0539 202.438 15.3232L211.536 27.8448C212.257 28.8739 213.458 29.4572 214.694 29.4229L230.177 29.0455C233.335 28.9769 235.189 32.5447 233.335 35.0833L224.203 47.6049C223.483 48.5998 223.277 49.9377 223.688 51.1041L228.838 65.7184C229.662 68.0855 228.083 70.3497 225.886 70.727C225.302 70.8299 224.684 70.7957 224.066 70.5898L209.339 65.787C208.755 65.5811 208.103 65.5469 207.519 65.6498C206.936 65.7527 206.352 65.9928 205.837 66.3702L193.547 75.77C193.032 76.1817 192.448 76.4218 191.865 76.4904C189.668 76.8677 187.402 75.2211 187.402 72.7168V57.2448C187.402 56.0098 186.784 54.8091 185.754 54.123L172.983 45.3408C170.374 43.5569 170.958 39.5774 173.979 38.5825L188.706 33.814C189.908 33.4366 190.835 32.4761 191.178 31.2754L195.607 16.4209C196.156 14.9801 197.392 14.0538 198.731 13.8137ZM198.113 10.143C195.263 10.6232 192.998 12.6473 192.174 15.3917L187.745 30.2462L172.949 35.0833C170.203 35.9752 168.246 38.3081 167.834 41.1554C167.422 44.0028 168.623 46.7816 170.992 48.4283L183.763 57.2105L183.797 72.7854C183.797 75.0153 184.759 77.1079 186.441 78.5145C188.157 79.9553 190.389 80.5728 192.586 80.1954C193.787 79.9896 194.886 79.5093 195.881 78.7546L208.171 69.3548L223.002 74.1233C224.169 74.5007 225.405 74.6036 226.607 74.3977C228.804 74.0204 230.692 72.7167 231.825 70.7613C232.958 68.8745 233.164 66.576 232.408 64.4833L227.259 49.8691L236.391 37.2446C238.073 34.9118 238.313 31.8928 236.974 29.3199C235.635 26.7813 233.026 25.2375 230.142 25.3061L214.66 25.6835L205.494 13.0933C203.743 10.8291 200.928 9.66268 198.113 10.143Z" fill="white"/>
</svg>
