<svg width="259" height="143" viewBox="0 0 259 143" fill="none" xmlns="http://www.w3.org/2000/svg">
<path d="M209.477 24.9018L220.034 36.1978C220.892 37.1013 222.148 37.5475 223.37 37.3776L238.659 35.097C241.78 34.6477 244.074 37.9403 242.553 40.6918L235.056 54.196C234.454 55.2959 234.427 56.6075 234.964 57.7188L241.84 71.558C243.254 74.3629 240.817 77.5603 237.719 76.9739L222.541 74.042C221.308 73.7999 220.041 74.1815 219.174 75.0696L208.141 85.901C205.905 88.1118 202.104 86.7769 201.723 83.6509L199.852 68.3271C199.716 67.1024 198.941 66.0175 197.841 65.4163L184.124 58.2588C181.344 56.8107 181.414 52.7738 184.266 51.4589L198.29 44.9107C199.436 44.3703 200.215 43.3196 200.424 42.0912L202.974 26.8626C203.459 23.7783 207.329 22.626 209.477 24.9018Z" fill="#82BCC6"/>
<path d="M205.608 23.8843C206.909 23.499 208.388 23.7827 209.481 24.9357L220.038 36.2316C220.896 37.1351 222.152 37.5813 223.373 37.4114L238.663 35.1309C241.783 34.6815 244.078 37.9742 242.557 40.7257L235.06 54.2299C234.458 55.3297 234.431 56.6413 234.968 57.7527L241.844 71.5918C242.951 73.8108 241.676 76.2939 239.539 76.9097C238.971 77.0759 238.355 77.1099 237.723 77.0077L222.545 74.0759C221.947 73.97 221.297 74.0077 220.729 74.1739C220.162 74.3401 219.613 74.6765 219.178 75.1035L208.145 85.9348C207.68 86.3996 207.128 86.7019 206.594 86.8644C204.461 87.5142 202.037 86.1644 201.727 83.6848L199.856 68.3609C199.72 67.1363 198.945 66.0513 197.845 65.4501L184.128 58.2927C181.348 56.8445 181.418 52.8077 184.27 51.4927L198.293 44.9445C199.44 44.4042 200.219 43.3535 200.428 42.1251L202.978 26.8965C203.217 25.3203 204.306 24.2696 205.608 23.8843ZM202.766 14.4191C197.765 15.9378 194.088 20.0648 193.212 25.2242L191.177 37.3307L180.07 42.5225C175.319 44.7367 172.284 49.3779 172.173 54.5903C172.065 59.8367 174.866 64.5884 179.511 67.0007L190.376 72.6836L191.862 84.8474C192.341 88.8579 194.56 92.4 197.941 94.6079C201.322 96.8159 205.49 97.4213 209.36 96.2691C211.459 95.6231 213.4 94.4781 214.985 92.9248L223.752 84.3422L235.798 86.6914C237.981 87.1037 240.243 86.9907 242.346 86.3787C246.216 85.2264 249.352 82.4336 250.972 78.707C252.562 75.0181 252.442 70.83 250.662 67.2048L245.207 56.2386L251.153 45.5237C253.677 40.9391 253.41 35.4243 250.416 31.1072C247.422 26.7901 242.354 24.597 237.168 25.3786L225.03 27.1721L216.662 18.2163C213.1 14.3754 207.771 12.9344 202.766 14.4191Z" fill="#23ACCC"/>
<path d="M205.608 23.8846C206.909 23.4992 208.388 23.783 209.481 24.936L220.038 36.2319C220.896 37.1354 222.152 37.5816 223.374 37.4117L238.663 35.1311C241.784 34.6818 244.079 37.9744 242.557 40.7259L235.06 54.2302C234.458 55.33 234.431 56.6416 234.968 57.7529L241.844 71.5921C242.952 73.811 241.676 76.2942 239.539 76.91C238.972 77.0762 238.355 77.1101 237.723 77.008L222.545 74.0762C221.948 73.9703 221.297 74.008 220.73 74.1742C220.162 74.3404 219.614 74.6767 219.179 75.1038L208.146 85.9351C207.68 86.3999 207.128 86.7022 206.595 86.8647C204.461 87.5145 202.037 86.1647 201.728 83.685L199.856 68.3612C199.721 67.1365 198.945 66.0516 197.845 65.4504L184.128 58.2929C181.349 56.8448 181.418 52.8079 184.27 51.493L198.294 44.9448C199.44 44.4044 200.22 43.3538 200.428 42.1253L202.978 26.8967C203.217 25.3206 204.307 24.2699 205.608 23.8846ZM204.524 20.32C201.755 21.1436 199.768 23.4301 199.287 26.2384L196.737 41.4671L182.649 48.0569C180.027 49.2773 178.377 51.802 178.316 54.6672C178.254 57.5323 179.785 60.1519 182.346 61.4866L196.062 68.6441L198.013 84.0624C198.292 86.2699 199.506 88.2016 201.329 89.4114C203.185 90.6175 205.5 90.9807 207.6 90.3347C208.768 89.9985 209.801 89.3674 210.706 88.5095L221.739 77.6782L237.019 80.5987C238.252 80.8408 239.451 80.7768 240.62 80.4405C242.753 79.7907 244.478 78.2564 245.357 76.2306C246.235 74.2047 246.152 71.9065 245.177 69.9484L238.301 56.1093L245.787 42.503C247.199 40.0048 247.033 36.9581 245.392 34.5917C243.751 32.2252 240.964 31.019 238.116 31.4381L222.827 33.7187L212.198 22.3964C210.205 20.2755 207.293 19.4965 204.524 20.32Z" fill="white"/>
<path d="M68.0074 28.2613L70.8304 43.4632C71.0544 44.6891 71.8766 45.7192 73.0382 46.2305L87.1758 52.5054C90.0645 53.7761 90.214 57.8033 87.45 59.3196L73.8758 66.719C72.7703 67.3102 72.0606 68.4088 71.9322 69.6482L70.3281 85.0257C70.007 88.1624 66.2327 89.551 63.9455 87.3956L52.7079 76.7575C51.793 75.9107 50.5235 75.5365 49.3123 75.8057L34.1805 79.0021C31.0835 79.6594 28.6173 76.4926 29.9785 73.6522L36.6148 59.7097C37.1407 58.5949 37.0858 57.2627 36.4782 56.1878L28.7456 42.7971C27.1655 40.079 29.4022 36.7227 32.5246 37.1526L47.8616 39.1625C49.0861 39.322 50.3441 38.8847 51.1757 37.9246L61.5221 26.4358C63.5549 24.0889 67.4247 25.1657 68.0074 28.2613Z" fill="#FEBC11"/>
<path d="M65.31 25.3235C66.6254 25.6826 67.7385 26.7448 68.007 28.2619L70.83 43.4638C71.054 44.6897 71.8762 45.7198 73.0378 46.2311L87.1754 52.506C90.0641 53.7767 90.2135 57.8039 87.4495 59.3202L73.8754 66.7196C72.7699 67.3109 72.0602 68.4094 71.9318 69.6488L70.3277 85.0263C70.071 87.5051 67.6445 88.8855 65.5338 88.2773C64.9679 88.1059 64.4179 87.8274 63.9606 87.3657L52.723 76.7276C52.2808 76.3119 51.7156 75.9874 51.1497 75.816C50.5839 75.6446 49.9407 75.6259 49.3428 75.7452L34.211 78.9416C33.5671 79.076 32.9699 79.0422 32.3886 78.9014C30.2778 78.2932 28.9416 75.8519 29.9936 73.6223L36.6298 59.6798C37.1558 58.565 37.1008 57.2327 36.4933 56.1579L28.7606 42.7672C27.1806 40.0491 29.4172 36.6928 32.5396 37.1226L47.8767 39.1325C49.1012 39.2921 50.3591 38.8548 51.1907 37.8947L61.5371 26.4059C62.5075 25.2475 64.01 24.934 65.31 25.3235ZM67.9738 15.8151C62.9262 14.4106 57.6197 15.9442 54.1247 19.8143L45.9031 28.926L33.7345 27.3309C28.5456 26.6605 23.5112 28.9457 20.5807 33.2934C17.6807 37.6566 17.5016 43.1671 20.1145 47.7125L26.252 58.339L20.9924 69.4106C19.2598 73.0604 19.2094 77.255 20.8922 80.9075C22.5596 84.5906 25.7628 87.3632 29.6327 88.44C31.7434 89.0482 34.0098 89.1214 36.1716 88.6429L48.1759 86.0883L57.0807 94.5095C58.6971 96.0184 60.6521 97.1616 62.7783 97.7393C66.6787 98.8315 70.8171 98.1644 74.1668 95.8704C77.501 93.6069 79.6622 90.0205 80.0793 86.0116L81.3468 73.8014L92.1109 67.9334C96.7174 65.4317 99.4509 60.6389 99.2307 55.3866C99.0409 50.1498 95.9074 45.571 91.1388 43.4638L79.9205 38.4749L77.6648 26.3991C76.7391 21.3268 73.0214 17.2196 67.9738 15.8151Z" fill="#23ACCC"/>
<path d="M65.3101 25.3239C66.6256 25.683 67.7386 26.7452 68.0071 28.2623L70.8302 43.4641C71.0541 44.6901 71.8763 45.7202 73.0379 46.2315L87.1755 52.5064C90.0642 53.777 90.2137 57.8042 87.4497 59.3206L73.8755 66.72C72.77 67.3112 72.0603 68.4098 71.9319 69.6492L70.3279 85.0267C70.0711 87.5055 67.6447 88.8859 65.534 88.2777C64.9681 88.1063 64.418 87.8278 63.9607 87.3661L52.7231 76.7279C52.2809 76.3123 51.7158 75.9878 51.1499 75.8164C50.584 75.645 49.9408 75.6263 49.3429 75.7456L34.2111 78.942C33.5672 79.0764 32.97 79.0426 32.3887 78.9018C30.278 78.2936 28.9417 75.8523 29.9937 73.6227L36.6299 59.6802C37.1559 58.5653 37.101 57.2331 36.4934 56.1582L28.7608 42.7676C27.1808 40.0495 29.4174 36.6932 32.5398 37.123L47.8768 39.1329C49.1013 39.2925 50.3593 38.8551 51.1909 37.895L61.5373 26.4063C62.5077 25.2479 64.0101 24.9343 65.3101 25.3239ZM66.3071 21.7621C63.554 20.9821 60.6246 21.8393 58.7 23.9724L48.3536 35.4612L32.9245 33.4814C30.0775 33.1142 27.2995 34.355 25.7107 36.7349C24.122 39.1148 24.0004 42.1607 25.4744 44.6333L33.207 58.024L26.5549 72.0736C25.6112 74.0895 25.5698 76.3703 26.4793 78.3654C27.404 80.4064 29.1429 81.9006 31.2842 82.5243C32.462 82.852 33.6717 82.889 34.883 82.6198L50.0148 79.4234L61.329 90.062C62.244 90.9088 63.2826 91.5114 64.4604 91.8391C66.5711 92.4473 68.8702 92.0767 70.6988 90.8157C72.5118 89.5852 73.7004 87.6165 73.9406 85.3979L75.5447 70.0203L89.1803 62.5753C91.7139 61.2108 93.2121 58.5549 93.0877 55.6914C92.9634 52.8278 91.2751 50.3235 88.6464 49.1461L74.5088 42.8712L71.6095 27.5923C71.1174 24.7728 69.0758 22.5115 66.3071 21.7621Z" fill="white"/>
<path d="M64.2524 28.6247C64.2524 28.6247 55.7586 53.2129 58.8145 54.7599C61.8704 56.307 88.116 54.2868 85.7788 52.9885C83.457 51.6596 71.8997 47.113 70.7744 45.3924C69.6492 43.6718 67.744 28.7044 67.0897 27.7977C66.4048 26.8755 64.9822 26.5006 64.2524 28.6247Z" fill="url(#paint0_linear_61_18733)"/>
<path d="M58.5433 57.0412C58.5433 57.0412 69.5426 66.2543 70.2522 68.4167C70.9619 70.579 69.713 85.3308 69.0389 85.3731C68.3648 85.4155 56.9839 62.9271 56.6108 60.8584C56.2531 58.7591 57.1703 55.8857 58.5433 57.0412Z" fill="url(#paint1_linear_61_18733)"/>
<path d="M29.0641 40.273C29.0641 40.273 50.9754 54.4733 50.3869 55.8633C49.8289 57.2689 39.5341 57.8116 37.9921 56.7624C36.4502 55.7132 26.4591 40.5654 29.0641 40.273Z" fill="url(#paint2_linear_61_18733)"/>
<path d="M32.3056 76.865C32.3056 76.865 48.8182 60.173 52.0675 59.6696C55.2709 59.1813 51.4647 73.8277 50.3574 74.8016C49.2806 75.7911 28.0585 81.0833 32.3056 76.865Z" fill="url(#paint3_linear_61_18733)"/>
<path d="M140.812 64.293L147.499 78.2344C148.034 79.3596 149.096 80.14 150.351 80.331L165.635 82.706C168.755 83.1801 169.949 87.0293 167.675 89.2134L156.498 99.8937C155.584 100.753 155.185 101.998 155.384 103.228L157.842 118.492C158.349 121.605 155.067 123.928 152.297 122.443L138.676 115.1C137.572 114.521 136.249 114.491 135.15 115.066L121.373 122.094C118.554 123.536 115.348 121.121 115.923 118.024L118.697 102.834C118.915 101.621 118.514 100.349 117.648 99.4694L106.694 88.5557C104.46 86.3431 105.745 82.52 108.871 82.1215L124.202 80.0663C125.426 79.9013 126.527 79.1513 127.08 78.0077L134.076 64.2202C135.427 61.4247 139.443 61.4561 140.812 64.293Z" fill="#82BCC6"/>
<path d="M137.443 62.1584C138.807 62.1624 140.158 62.8979 140.812 64.2927L147.499 78.2341C148.034 79.3593 149.096 80.1396 150.351 80.3307L165.635 82.7056C168.755 83.1798 169.949 87.029 167.675 89.2131L156.498 99.8934C155.584 100.752 155.185 101.998 155.384 103.228L157.842 118.492C158.24 120.952 156.257 122.917 154.06 122.88C153.469 122.862 152.866 122.736 152.304 122.41L138.683 115.067C138.148 114.78 137.518 114.614 136.927 114.596C136.336 114.578 135.71 114.728 135.164 114.999L121.387 122.027C120.8 122.325 120.215 122.448 119.617 122.463C117.421 122.426 115.495 120.417 115.929 117.99L118.704 102.8C118.921 101.587 118.521 100.315 117.655 99.4355L106.7 88.5218C104.467 86.3092 105.752 82.4862 108.878 82.0877L124.209 80.0324C125.433 79.8675 126.534 79.1175 127.087 77.9739L134.083 64.1864C134.718 62.8151 136.086 62.121 137.443 62.1584ZM137.538 52.2843C132.298 52.2434 127.575 55.1065 125.209 59.7536L119.645 70.6926L107.481 72.3228C102.297 73.0274 98.0314 76.5453 96.3348 81.5063C94.6717 86.4744 95.9344 91.8412 99.6413 95.5489L108.335 104.209L106.142 116.269C105.42 120.244 106.464 124.307 109.04 127.395C111.61 130.516 115.425 132.359 119.441 132.39C121.638 132.427 123.845 131.908 125.807 130.882L136.732 125.289L147.523 131.099C149.477 132.135 151.662 132.729 153.865 132.733C157.915 132.771 161.737 131.049 164.374 127.962C167.003 124.908 168.155 120.882 167.513 116.903L165.556 104.784L174.42 96.3144C178.215 92.6989 179.606 87.3595 178.025 82.346C176.477 77.3394 172.259 73.7352 167.106 72.943L154.975 71.0492L149.651 59.9781C147.436 55.3221 142.777 52.3253 137.538 52.2843Z" fill="#23ACCC"/>
<path d="M137.443 62.1589C138.806 62.1629 140.158 62.8984 140.812 64.2931L147.498 78.2346C148.034 79.3598 149.096 80.1401 150.351 80.3312L165.635 82.7061C168.755 83.1803 169.948 87.0295 167.675 89.2136L156.497 99.8939C155.584 100.753 155.185 101.998 155.384 103.228L157.841 118.493C158.239 120.953 156.256 122.918 154.06 122.88C153.469 122.862 152.865 122.737 152.304 122.41L138.682 115.067C138.147 114.781 137.517 114.615 136.926 114.597C136.335 114.579 135.709 114.728 135.163 114.999L121.387 122.028C120.8 122.325 120.215 122.448 119.617 122.463C117.42 122.426 115.494 120.417 115.929 117.991L118.704 102.801C118.921 101.587 118.521 100.315 117.654 99.436L106.7 88.5223C104.466 86.3097 105.751 82.4866 108.878 82.0881L124.209 80.0329C125.433 79.8679 126.533 79.118 127.086 77.9744L134.082 64.1868C134.717 62.8156 136.086 62.1215 137.443 62.1589ZM137.477 58.4603C134.616 58.4245 132.011 60.0153 130.709 62.5762L123.713 76.3638L108.301 78.472C105.456 78.8593 103.097 80.7809 102.184 83.4926C101.27 86.2042 101.946 89.1766 104.013 91.1798L114.967 102.093L112.205 117.391C111.819 119.583 112.374 121.796 113.772 123.485C115.196 125.215 117.264 126.204 119.494 126.249C120.717 126.258 121.894 125.979 122.993 125.403L136.77 118.375L150.465 125.698C151.569 126.278 152.729 126.589 153.951 126.598C156.148 126.636 158.271 125.679 159.708 123.985C161.138 122.325 161.772 120.114 161.426 117.91L158.968 102.645L170.194 91.905C172.284 89.9276 173.039 86.973 172.173 84.2408C171.306 81.5085 169.024 79.5305 166.179 79.0787L150.895 76.7037L144.115 62.7078C142.906 60.1138 140.345 58.4626 137.477 58.4603Z" fill="white"/>
<defs>
<linearGradient id="paint0_linear_61_18733" x1="27.4367" y1="35.761" x2="76.9926" y2="43.1264" gradientUnits="userSpaceOnUse">
<stop stop-color="white"/>
<stop offset="1" stop-color="#FFC840"/>
</linearGradient>
<linearGradient id="paint1_linear_61_18733" x1="35.8319" y1="66.945" x2="65.1935" y2="71.3092" gradientUnits="userSpaceOnUse">
<stop stop-color="white"/>
<stop offset="1" stop-color="#FFC840"/>
</linearGradient>
<linearGradient id="paint2_linear_61_18733" x1="26.4677" y1="44.9709" x2="49.9203" y2="56.8441" gradientUnits="userSpaceOnUse">
<stop stop-color="#F99F1B"/>
<stop offset="1" stop-color="#FEBC11"/>
</linearGradient>
<linearGradient id="paint3_linear_61_18733" x1="37.4049" y1="66.4914" x2="51.1264" y2="73.4381" gradientUnits="userSpaceOnUse">
<stop stop-color="#F99F1B"/>
<stop offset="1" stop-color="#FEBC11"/>
</linearGradient>
</defs>
</svg>
