<svg width="20" height="19" viewBox="0 0 20 19" fill="none" xmlns="http://www.w3.org/2000/svg">
<rect width="20" height="19" rx="5" fill="white"/>
<path d="M14 5.7C14 5.52319 13.9297 5.35362 13.8047 5.2286C13.6797 5.10357 13.5101 5.03333 13.3333 5.03333L7.99996 5C7.82315 5 7.65358 5.07024 7.52855 5.19526C7.40353 5.32029 7.33329 5.48986 7.33329 5.66667C7.33329 5.84348 7.40353 6.01305 7.52855 6.13807C7.65358 6.2631 7.82315 6.33333 7.99996 6.33333H11.7066L6.19329 11.86C6.13081 11.922 6.08121 11.9957 6.04737 12.0769C6.01352 12.1582 5.99609 12.2453 5.99609 12.3333C5.99609 12.4213 6.01352 12.5085 6.04737 12.5897C6.08121 12.671 6.13081 12.7447 6.19329 12.8067C6.25527 12.8692 6.329 12.9187 6.41024 12.9526C6.49148 12.9864 6.57862 13.0039 6.66663 13.0039C6.75463 13.0039 6.84177 12.9864 6.92301 12.9526C7.00425 12.9187 7.07798 12.8692 7.13996 12.8067L12.6666 7.28V11C12.6666 11.1768 12.7369 11.3464 12.8619 11.4714C12.9869 11.5964 13.1565 11.6667 13.3333 11.6667C13.5101 11.6667 13.6797 11.5964 13.8047 11.4714C13.9297 11.3464 14 11.1768 14 11V5.7Z" fill="#6AC977"/>
</svg>
