<svg width="48" height="46" viewBox="0 0 48 46" fill="none" xmlns="http://www.w3.org/2000/svg">
<rect width="48" height="46" rx="11" fill="#FF8CA1"/>
<g clip-path="url(#clip0_460:250)">
<path d="M19.2031 13.1689C18.5828 13.5697 18.2808 14.113 18.0458 14.6878C17.3955 16.2756 17.2213 17.94 17.1046 19.6083C16.909 22.39 17.0214 25.1717 17.1853 27.9511C17.2299 28.7021 17.8759 29.26 18.6463 29.2224C19.4382 29.1834 20.019 28.5956 19.9855 27.8492C19.9572 27.2247 19.8971 26.6009 19.8757 25.9756C19.7839 23.2444 19.7084 20.5141 20.0962 17.7936C20.1125 17.6764 20.0353 17.4833 20.3167 17.5147C20.5577 17.5423 20.5191 17.6818 20.4951 17.8251C20.2841 19.1033 20.2394 20.3922 20.2034 21.6804C20.1459 23.7241 20.2721 25.7641 20.3707 27.804C20.4127 28.6814 19.9589 29.2723 19.0195 29.5205C18.8153 29.5742 18.7879 29.6493 18.7879 29.8056C18.7921 33.2525 18.7921 36.6994 18.7939 40.1462C18.7939 40.5294 18.9363 40.8727 19.1808 41.1815C19.7178 41.8613 20.6873 42.1555 21.5684 41.9126C22.4743 41.6628 23.0912 40.9401 23.0929 40.0796C23.0997 36.8113 23.0963 33.5429 23.0963 30.2754C23.0963 28.9604 23.0946 27.6454 23.0997 26.3304C23.0997 26.2239 23.0268 26.0491 23.1667 26.0223C23.3829 25.9809 23.6299 25.9794 23.8401 26.0338C23.9851 26.0714 23.9036 26.2614 23.9036 26.3802C23.907 30.7459 23.9062 35.1123 23.907 39.478C23.907 39.6949 23.9002 39.9125 23.9148 40.1286C23.9885 41.2122 24.9177 42.0092 26.0844 41.9992C27.2641 41.9885 28.2206 41.1448 28.2249 40.0574C28.2378 36.6488 28.2275 33.2402 28.2352 29.8317C28.2361 29.6248 28.1632 29.5635 27.9427 29.5106C27.3224 29.3612 26.9072 28.9933 26.7021 28.4462C26.576 28.1098 26.6258 27.7649 26.6455 27.4208C26.8145 24.5127 26.9149 21.6053 26.6206 18.6979C26.5897 18.3929 26.5554 18.0887 26.5142 17.7845C26.4945 17.6412 26.5057 17.54 26.703 17.5093C26.9346 17.4733 26.8651 17.6327 26.8952 17.7231C26.9226 17.8082 26.9329 17.8986 26.9441 17.9868C27.1114 19.3201 27.1851 20.6574 27.2057 21.9984C27.2349 23.9142 27.1388 25.8269 27.0359 27.7396C27.0256 27.9304 27.0118 28.122 27.0745 28.3098C27.2589 28.8669 27.8715 29.26 28.4969 29.2194C29.1978 29.1742 29.752 28.7021 29.8001 28.0561C30.0042 25.3411 30.066 22.623 29.9227 19.9041C29.8455 18.4389 29.6911 16.9768 29.2682 15.5522C29.0374 14.7736 28.7594 14.0096 28.1237 13.4019C28.0422 13.3237 27.9633 13.1858 27.8234 13.2287C27.7059 13.2647 27.7436 13.4065 27.7188 13.5031C27.222 15.4349 25.1407 16.72 22.9393 16.4541C21.0287 16.2258 19.687 15.061 19.2031 13.1689Z" fill="#FDFDFD"/>
<path d="M23.5246 9.1297C21.3635 9.11821 19.5911 10.6784 19.5782 12.6049C19.5653 14.5383 21.3078 16.1231 23.4611 16.1361C25.648 16.1491 27.423 14.5882 27.4324 12.6425C27.4419 10.7175 25.6874 9.1412 23.5246 9.1297Z" fill="#FDFDFD"/>
<path d="M21.6249 6.39687C21.6017 6.73864 21.4799 7.06126 21.2612 7.35323C21.1642 7.48197 21.0235 7.63446 21.232 7.74481C21.4302 7.84903 21.4894 7.63983 21.5589 7.53484C22.0556 6.78156 22.0513 6.00451 21.6258 5.2336C21.2783 4.60369 21.4156 4.05118 21.8849 3.53085C21.9389 3.47108 22.0015 3.41821 22.0522 3.3569C22.1345 3.25575 22.174 3.13774 22.0582 3.04501C21.9063 2.9247 21.8239 3.06953 21.7527 3.14846C21.1265 3.83738 20.8348 4.58224 21.298 5.44511C21.4585 5.74473 21.6078 6.04743 21.6249 6.39687Z" fill="#FDFDFD"/>
<path d="M23.2122 7.77938C23.3366 7.75332 23.3889 7.656 23.4456 7.57171C23.8951 6.90655 24.0195 6.18698 23.642 5.48887C23.2182 4.70416 23.238 4.02521 23.9303 3.38917C24.0375 3.29108 24.1027 3.15851 23.9706 3.05122C23.7999 2.91176 23.715 3.08954 23.6412 3.1723C23.0158 3.86582 22.7369 4.61987 23.2277 5.47048C23.6146 6.14177 23.6326 6.78317 23.1264 7.41308C23.0801 7.47056 23.0509 7.55255 23.0535 7.62152C23.0561 7.69509 23.1058 7.76788 23.2122 7.77938Z" fill="#FDFDFD"/>
<path d="M25.1123 7.77521C25.1938 7.77138 25.247 7.73613 25.3602 7.56601C25.8398 6.84567 25.9093 6.08932 25.4872 5.34217C25.0857 4.63026 25.2109 4.01874 25.7814 3.44707C25.9033 3.32523 26.0319 3.17043 25.8715 3.05395C25.6768 2.91295 25.5772 3.13595 25.4889 3.2394C24.8918 3.93598 24.6636 4.68544 25.1509 5.51229C25.5292 6.15446 25.5292 6.77824 25.0539 7.38286C24.9956 7.45796 24.9424 7.53229 24.9638 7.62885C24.9819 7.70854 25.0205 7.77215 25.1123 7.77521Z" fill="#FDFDFD"/>
<path d="M19.2031 13.1689C19.687 15.061 21.0287 16.2258 22.9393 16.4564C25.1407 16.7223 27.222 15.4372 27.7188 13.5054C27.7436 13.4088 27.7059 13.267 27.8234 13.231C27.9633 13.1881 28.0422 13.3268 28.1237 13.4042C28.7594 14.0119 29.0374 14.7759 29.2682 15.5545C29.6911 16.9798 29.8455 18.4412 29.9227 19.9064C30.066 22.6253 30.0042 25.3434 29.8001 28.0584C29.7512 28.7037 29.1978 29.1757 28.4969 29.2217C27.8715 29.2623 27.2589 28.8692 27.0745 28.3121C27.0118 28.1243 27.0256 27.932 27.0359 27.7419C27.1388 25.8292 27.2349 23.9165 27.2057 22.0007C27.186 20.6597 27.1122 19.3217 26.9441 17.9891C26.9329 17.9002 26.9226 17.8105 26.8952 17.7254C26.866 17.635 26.9355 17.4749 26.703 17.5116C26.5048 17.5423 26.4945 17.6435 26.5142 17.7868C26.5554 18.0902 26.5897 18.3952 26.6206 18.7002C26.9149 21.6068 26.8145 24.515 26.6455 27.4231C26.6258 27.7672 26.576 28.1121 26.7021 28.4485C26.908 28.9956 27.3224 29.3635 27.9427 29.5129C28.1623 29.5658 28.2352 29.6271 28.2352 29.834C28.2275 33.2425 28.2378 36.6511 28.2249 40.0597C28.2206 41.1471 27.2641 41.9908 26.0844 42.0015C24.9177 42.0122 23.9894 41.2145 23.9148 40.1309C23.9002 39.9148 23.907 39.6972 23.907 39.4803C23.907 35.1146 23.9079 30.7482 23.9036 26.3825C23.9036 26.2637 23.9851 26.0737 23.8401 26.0361C23.6299 25.9817 23.3829 25.9832 23.1667 26.0246C23.0277 26.0514 23.1006 26.2262 23.0997 26.3327C23.0954 27.6477 23.0963 28.9627 23.0963 30.2777C23.0963 33.546 23.0997 36.8143 23.0929 40.0819C23.0912 40.9417 22.4743 41.6651 21.5684 41.9149C20.6864 42.1578 19.7178 41.8636 19.1808 41.1838C18.9363 40.875 18.7947 40.5309 18.7939 40.1485C18.7921 36.7017 18.7921 33.2548 18.7879 29.8079C18.7879 29.6516 18.8153 29.5765 19.0195 29.5228C19.9589 29.2753 20.4127 28.6837 20.3707 27.8063C20.2721 25.7656 20.1459 23.7257 20.2034 21.6827C20.2394 20.3945 20.2841 19.1056 20.4951 17.8274C20.5191 17.6841 20.5577 17.5446 20.3167 17.517C20.0353 17.4856 20.1133 17.6787 20.0962 17.7959C19.7075 20.5164 19.783 23.2475 19.8757 25.9779C19.8971 26.6024 19.9572 27.227 19.9855 27.8515C20.019 28.5979 19.4382 29.1857 18.6463 29.2247C17.8759 29.2623 17.229 28.7044 17.1853 27.9534C17.0214 25.1732 16.909 22.3923 17.1046 19.6106C17.2222 17.9423 17.3955 16.2779 18.0458 14.6901C18.2808 14.113 18.582 13.5697 19.2031 13.1689Z" fill="white"/>
<path d="M23.5246 9.1297C25.6883 9.1412 27.4418 10.7175 27.4324 12.6425C27.423 14.5882 25.6479 16.1499 23.4611 16.1361C21.3077 16.1231 19.5662 14.5383 19.5782 12.6049C19.5911 10.6784 21.3627 9.11821 23.5246 9.1297Z" fill="white"/>
<path d="M21.6249 6.39699C21.6086 6.04755 21.4585 5.74485 21.298 5.44522C20.8348 4.58236 21.1265 3.8375 21.7527 3.14858C21.8239 3.07042 21.9072 2.92482 22.0582 3.04513C22.174 3.13709 22.1354 3.25587 22.0522 3.35702C22.0015 3.41833 21.9389 3.4712 21.8849 3.53097C21.4156 4.05207 21.2783 4.60381 21.6258 5.23372C22.0504 6.00463 22.0556 6.78091 21.5589 7.53496C21.4894 7.63995 21.4302 7.84915 21.232 7.74493C21.0235 7.63458 21.1642 7.48209 21.2612 7.35335C21.4799 7.06138 21.6017 6.73953 21.6249 6.39699Z" fill="white"/>
<path d="M23.2122 7.77938C23.1058 7.76788 23.0561 7.69509 23.0535 7.62152C23.0509 7.55178 23.081 7.46979 23.1264 7.41308C23.6326 6.78394 23.6146 6.14177 23.2277 5.47048C22.7369 4.62064 23.0158 3.86582 23.6412 3.1723C23.7158 3.08954 23.8007 2.91176 23.9706 3.05122C24.1019 3.15851 24.0375 3.29108 23.9303 3.38917C23.238 4.02521 23.2182 4.70416 23.642 5.48887C24.0195 6.18698 23.8951 6.90655 23.4456 7.57171C23.3889 7.656 23.3366 7.75409 23.2122 7.77938Z" fill="white"/>
<path d="M25.1124 7.77491C25.0214 7.77185 24.9828 7.70824 24.9648 7.62778C24.9434 7.53122 24.9957 7.45689 25.0549 7.38179C25.5293 6.77717 25.5302 6.15339 25.1518 5.51122C24.6645 4.6836 24.8928 3.93491 25.4899 3.23833C25.5782 3.13565 25.6777 2.91188 25.8725 3.05289C26.0338 3.16937 25.9051 3.32416 25.7824 3.446C25.211 4.01767 25.0858 4.62919 25.4881 5.3411C25.9102 6.08825 25.8399 6.84461 25.3612 7.56494C25.2462 7.73583 25.1939 7.77108 25.1124 7.77491Z" fill="white"/>
</g>
<defs>
<clipPath id="clip0_460:250">
<rect width="13" height="39" fill="white" transform="translate(17 3)"/>
</clipPath>
</defs>
</svg>
